<?xml version="1.0" standalone="no"?>
<!DOCTYPE svg PUBLIC "-//W3C//DTD SVG 20010904//EN"
 "http://www.w3.org/TR/2001/REC-SVG-20010904/DTD/svg10.dtd">
<svg version="1.0" xmlns="http://www.w3.org/2000/svg"
 width="520.000000pt" height="519.000000pt" viewBox="0 0 520.000000 519.000000"
 preserveAspectRatio="xMidYMid meet">

<g transform="translate(0.000000,519.000000) scale(0.100000,-0.100000)"
fill="#000000" stroke="none">
<path d="M0 2595 l0 -2595 2600 0 2600 0 0 2595 0 2595 -2600 0 -2600 0 0
-2595z m5030 870 l0 -1575 -2445 0 -2445 0 0 1568 c0 863 3 1572 7 1575 3 4
1104 7 2445 7 l2438 0 0 -1575z m-3727 -1902 c112 -53 193 -158 217 -279 39
-200 -126 -378 -350 -378 -94 -1 -159 45 -160 111 0 57 34 83 127 98 96 15
147 47 157 97 19 97 -8 132 -117 153 -56 10 -90 23 -123 47 -44 31 -46 35 -41
72 15 113 143 147 290 79z m-493 12 c17 -9 38 -32 49 -53 38 -75 42 -135 37
-496 -5 -374 -7 -390 -62 -429 -32 -24 -81 -16 -123 18 -38 33 -40 52 -42 480
-3 387 1 418 54 466 36 33 47 35 87 14z m1733 -41 c24 -30 68 -101 98 -157 30
-56 78 -140 108 -187 30 -47 86 -139 126 -205 40 -66 86 -142 104 -170 46 -72
55 -115 36 -162 -9 -20 -23 -45 -32 -55 -52 -58 -171 31 -238 178 -19 41 -100
180 -180 309 -142 229 -205 347 -205 387 0 51 60 118 106 118 27 0 39 -9 77
-56z m1032 42 c18 -8 38 -23 44 -34 20 -38 30 -240 27 -563 -2 -206 -7 -333
-14 -345 -15 -28 -85 -58 -115 -50 -39 10 -67 38 -79 81 -7 24 -13 193 -15
427 -5 413 -6 401 46 465 29 35 55 40 106 19z m413 -1 c164 -39 297 -160 350
-320 58 -172 25 -362 -85 -501 -76 -95 -204 -159 -339 -171 l-75 -6 -40 39
c-52 51 -52 83 -1 134 31 31 51 40 130 60 163 40 217 104 217 260 0 73 -4 93
-28 141 -39 81 -102 136 -163 144 -92 13 -128 26 -161 62 -46 48 -42 84 15
146 31 32 80 36 180 12z m-1650 -358 c45 -44 42 -106 -10 -180 -19 -26 8 -43
93 -57 79 -13 89 -24 89 -93 0 -50 -27 -92 -69 -109 -14 -5 -77 -10 -138 -10
-127 1 -114 8 -182 -101 -57 -93 -132 -110 -193 -44 -26 27 -29 36 -24 69 12
74 50 155 131 274 46 66 97 151 114 187 52 108 119 131 189 64z"/>
<path d="M1784 4483 c-196 -4 -189 2 -189 -168 0 -68 3 -126 6 -129 20 -20
193 -28 444 -20 563 18 690 9 832 -61 167 -82 293 -306 263 -465 -30 -160
-140 -294 -288 -350 -114 -44 -203 -51 -602 -48 -206 1 -415 2 -465 3 -49 0
-111 -4 -137 -8 -45 -8 -47 -9 -54 -50 -5 -23 -8 -147 -6 -276 1 -191 5 -238
17 -258 15 -22 20 -23 146 -23 72 0 139 5 150 10 17 10 19 21 17 108 -1 116 7
159 34 173 13 7 165 12 435 15 472 5 477 5 638 84 200 97 321 236 413 470 80
204 -30 590 -222 783 -201 201 -403 230 -1432 210z"/>
</g>
</svg>
